M48
INCH
T01C0.0400
T02C0.0393
T03C0.0300
%
T01
X+008124Y+003701
X+010624Y+001651
X+010624Y+002651
X+009124Y+003701
X+010624Y-001348
X+010624Y-002348
X+010624Y-003348
X+010624Y-004348
X+010624Y-005348
X+010624Y-006348
X+010624Y-007348
X+010624Y-008348
X+004674Y-008348
X+004674Y-007348
X+004674Y-006348
X+004674Y-005348
X+004674Y+002651
X+010124Y+003701
X+004674Y-000348
X+007124Y+003701
X+004674Y+001651
X+005124Y+003701
X+010624Y-000348
X+007674Y-008348
X+006074Y+003701
X+004674Y-004348
X+004674Y-003348
X+004674Y-002348
X+004674Y-001348
X+005724Y-005798
X+005674Y-001848
X+005724Y-004798
X+005674Y-000848
X+005674Y-008348
X+006674Y-008348
X+004674Y+000651
X+010624Y+000651
X-006332Y+007832
X-007332Y+007832
X-008332Y+007832
X-016013Y-004624
X-016013Y-003624
X-016013Y-002624
X-016013Y-001624
X-016013Y-000624
X-016013Y+000375
X-016013Y+001375
X+010167Y+007832
X+009167Y+007832
X+008167Y+007832
X+007167Y+007832
X+006167Y+007832
X+005167Y+007832
X+001667Y-004356
X+001667Y-003356
X+001667Y-002356
X+001667Y-001356
X+022167Y-010356
X+023167Y-010356
X+024167Y-010356
X+025167Y-010356
X-021832Y-010856
X-022832Y-010856
X-023832Y-010856
X-024832Y-010856
X-024832Y+010143
X-023832Y+010143
X-022832Y+010143
X-021832Y+010143
X+022167Y+010143
X+021167Y+010143
X+020167Y+010143
X+019167Y+010143
T02
X+019167Y+003426
X+020167Y+003426
X+021167Y+003426
X+022167Y+003426
X+023167Y+003426
X+024167Y+003426
X+025167Y+003426
X+026167Y+003426
X-004875Y+002151
X-004875Y+001151
X-004875Y+000151
X-004875Y-000848
X-004875Y-001848
X-004875Y-002848
X-004875Y-003848
X-004875Y-004848
X-004875Y-005848
X-004875Y-006848
X-010375Y+002151
X-010375Y+001151
X-010375Y+000151
X-010375Y-000848
X-010375Y-001848
X-010375Y-002848
X-010375Y-003848
X-010375Y-004848
X-010375Y-005848
X-010375Y-006848
X-012332Y-013356
T03
X-008013Y-005124
X-008013Y-001124
X-007332Y+005143
X-008332Y+003143
X-008332Y+006143
X-010832Y+006143
X-008332Y-007856
X-005832Y-007856
X-019832Y+010143
X-023832Y+012643
X+016667Y+007643
X+012667Y+007643
X+016667Y+006643
X+012667Y+006643
X+016667Y+005643
X+012667Y+005643
X+014167Y+003143
X+013167Y+003143
X+012167Y+003143
X+014167Y-001356
X+013167Y-001356
X+012167Y-001356
X+014167Y-003356
X+014167Y-009356
X+009667Y-009356
X+007667Y-009356
X-011832Y-006856
X+015667Y+012643
X+015667Y+011643
X+025667Y+012643
X+025667Y+011643
M30
