M48
INCH
T01C0.0150
T02C0.0400
T03C0.0600
T04C0.0393
T05C0.0300
%
T01
X+009622Y+005813
X+024181Y-003456
X+024092Y-002579
X-017907Y-005956
X-011122Y-005956
X-010485Y-004956
X-017946Y-004956
X-017818Y-003956
X-010818Y-003956
X-017946Y-002932
X-010926Y-002814
X-011318Y+006043
X-017818Y+006043
X-002318Y+009043
X-006181Y+009067
X+009681Y+008543
X+024181Y-004456
X+032681Y-004456
X+032681Y-003456
X+005681Y-004456
X-000318Y-004456
X-000466Y-003433
X+005681Y-003456
X+016806Y-011773
X+016859Y-013955
X+018713Y+008572
X+018657Y+005875
X-020050Y+007785
X-010312Y+002626
X-017653Y+002738
X-018000Y+004000
X-021735Y+004012
T02
X-007368Y+000543
X-005318Y-001956
X-006318Y-001956
X-007368Y-000456
X-002318Y-001956
X-001318Y-001956
X-000318Y-001956
X+000681Y-001956
X+001681Y-001956
X+002681Y-001956
X+003681Y-001956
X+004681Y-001956
X+004681Y+003993
X+003681Y+003993
X+002681Y+003993
X+001681Y+003993
X-006318Y+003993
X-007368Y-001456
X-003318Y+003993
X-007368Y+001543
X-005318Y+003993
X-007368Y+003543
X-003318Y-001956
X+004681Y+000993
X-007368Y+002593
X+000681Y+003993
X-000318Y+003993
X-001318Y+003993
X-002318Y+003993
X+002131Y+002943
X-001818Y+002993
X+001131Y+002943
X-002818Y+002993
X+004681Y+002993
X+004681Y+001993
X-004318Y+003993
X-004318Y-001956
X+021181Y-004456
X+021181Y-003456
X+021181Y-002456
X+021181Y+000043
X+021181Y+001043
X+021181Y+002043
X+021181Y+003043
X+021181Y+004043
X+021181Y+005043
X+021181Y+006043
X-018818Y+007043
X-009818Y+007043
X-018818Y+008543
X-009818Y+008543
X-019318Y+001543
X-010318Y+001543
X-019318Y+000043
X-010318Y+000043
X+008181Y-009956
X+009181Y-009956
X+010181Y-009956
X+011181Y-009956
T03
X-013818Y-007456
X-015818Y-007456
X-013818Y-001456
X-015818Y-001456
X-013818Y+010543
X-015818Y+010543
X-013818Y+004543
X-015818Y+004543
T04
X-033818Y+004543
X-033818Y+003543
X-033818Y+002543
X-033818Y+001543
X-033818Y+000543
X-033818Y-000456
X-033818Y-001456
X-033818Y-002456
X+009681Y-001956
X+010681Y-001956
X+011681Y-001956
X+012681Y-001956
X+013681Y-001956
X+014681Y-001956
X+015681Y-001956
X+016681Y-001956
X+017681Y-001956
X+018681Y-001956
X+009681Y+004043
X+010681Y+004043
X+011681Y+004043
X+012681Y+004043
X+013681Y+004043
X+014681Y+004043
X+015681Y+004043
X+016681Y+004043
X+017681Y+004043
X+018681Y+004043
T05
X+019681Y-001956
X+019681Y+002043
M30
