M48
INCH
T01C0.0150
T02C0.0400
T03C0.0393
T04C0.0300
%
T01
X-012000Y-013000
T02
X+008456Y+004058
X+010956Y+002008
X+010956Y+003008
X+009456Y+004058
X+010956Y-000991
X+010956Y-001991
X+010956Y-002991
X+010956Y-003991
X+010956Y-004991
X+010956Y-005991
X+010956Y-006991
X+010956Y-007991
X+005006Y-007991
X+005006Y-006991
X+005006Y-005991
X+005006Y-004991
X+005006Y+003008
X+010456Y+004058
X+005006Y+000008
X+007456Y+004058
X+005006Y+002008
X+005456Y+004058
X+010956Y+000008
X+008006Y-007991
X+006406Y+004058
X+005006Y-003991
X+005006Y-002991
X+005006Y-001991
X+005006Y-000991
X+006056Y-005441
X+006006Y-001491
X+006056Y-004441
X+006006Y-000491
X+006006Y-007991
X+007006Y-007991
X+005006Y+001008
X+010956Y+001008
X-006000Y+008189
X-007000Y+008189
X-008000Y+008189
X-015681Y-004267
X-015681Y-003267
X-015681Y-002267
X-015681Y-001267
X-015681Y-000267
X-015681Y+000732
X-015681Y+001732
X+010500Y+008189
X+009500Y+008189
X+008500Y+008189
X+007500Y+008189
X+006500Y+008189
X+005500Y+008189
X+002000Y-004000
X+002000Y-003000
X+002000Y-002000
X+002000Y-001000
X+022500Y-010000
X+023500Y-010000
X+024500Y-010000
X+025500Y-010000
X-021500Y-010500
X-022500Y-010500
X-023500Y-010500
X-024500Y-010500
X-024500Y+010500
X-023500Y+010500
X-022500Y+010500
X-021500Y+010500
X+022500Y+010500
X+021500Y+010500
X+020500Y+010500
X+019500Y+010500
T03
X+019500Y+003783
X+020500Y+003783
X+021500Y+003783
X+022500Y+003783
X+023500Y+003783
X+024500Y+003783
X+025500Y+003783
X+026500Y+003783
X-004543Y+002508
X-004543Y+001508
X-004543Y+000508
X-004543Y-000491
X-004543Y-001491
X-004543Y-002491
X-004543Y-003491
X-004543Y-004491
X-004543Y-005491
X-004543Y-006491
X-010043Y+002508
X-010043Y+001508
X-010043Y+000508
X-010043Y-000491
X-010043Y-001491
X-010043Y-002491
X-010043Y-003491
X-010043Y-004491
X-010043Y-005491
X-010043Y-006491
T04
X-007681Y-004767
X-007681Y-000767
X-007000Y+005500
X-008000Y+003500
X-008000Y+006500
X-010500Y+006500
X-008000Y-007500
X-005500Y-007500
X-019500Y+010500
X-023500Y+013000
X+017000Y+008000
X+013000Y+008000
X+017000Y+007000
X+013000Y+007000
X+017000Y+006000
X+013000Y+006000
X+014500Y+003500
X+013500Y+003500
X+012500Y+003500
X+014500Y-001000
X+013500Y-001000
X+012500Y-001000
X+014500Y-003000
X+014500Y-009000
X+010000Y-009000
X+008000Y-009000
X-011500Y-006500
X+016000Y+013000
X+016000Y+012000
X+026000Y+013000
X+026000Y+012000
M30
